<?xml version="1.0" encoding="utf-8"?>
<!-- Generator: Adobe Illustrator 16.0.0, SVG Export Plug-In . SVG Version: 6.00 Build 0)  -->
<!DOCTYPE svg PUBLIC "-//W3C//DTD SVG 1.1//EN" "http://www.w3.org/Graphics/SVG/1.1/DTD/svg11.dtd">
<svg version="1.1" id="图层_1" xmlns="http://www.w3.org/2000/svg" xmlns:xlink="http://www.w3.org/1999/xlink" x="0px" y="0px"
	 width="160px" height="55px" viewBox="0 0 353.247 118.182" enable-background="new 0 0 353.247 118.182" xml:space="preserve">
<g>
	<path fill="#1D95D4" d="M109.984,112.875c3.674-1.145,7.2-2.632,10.51-4.455c6.357,4.371,14.047,6.94,22.345,6.94
		c21.804,0,39.484-17.677,39.484-39.484c0-21-16.411-38.125-37.104-39.362c-3.415-7.946-8.613-14.928-15.066-20.5
		c-7.855,15.447-13.737,32.215-17.149,50.09C109.999,81.87,109.064,97.553,109.984,112.875"/>
	<path fill="#1D95D4" d="M53.392,111.298c12.633-41.228,38.607-75.47,72.101-98.912c-9.157-6.38-20.268-10.138-32.274-10.138
		c-22.042,0-41.096,12.63-50.439,31.019C22.477,34.902,6.501,51.865,6.501,72.592c0,21.804,17.676,39.481,39.484,39.481
		C48.527,112.073,50.987,111.76,53.392,111.298"/>
	<path fill="#FFFFFF" d="M53.392,111.298c3.903-0.749,7.621-2.004,11.027-3.805c3.163,1.876,6.517,3.459,10.031,4.711
		c2.582-12.023,6.247-23.666,10.914-34.812h11.329c-3.491,12.227-5.814,24.912-6.889,37.923c1.13,0.066,2.265,0.119,3.415,0.119
		c5.843,0,11.466-0.912,16.766-2.559c-0.92-15.322,0.015-31.002,3.023-46.769c3.409-17.878,9.293-34.646,17.146-50.096
		c-1.493-1.284-3.044-2.498-4.661-3.625C91.999,35.825,66.024,70.073,53.392,111.298 M126.977,14.721
		c-0.059,0.209-12.477,19.147-17.443,29.152h-6.261C110.251,33.429,118.168,23.648,126.977,14.721 M107.56,48.058
		c-3.761,8.05-6.929,16.411-9.592,24.99H87.199c3.871-8.66,8.306-17.027,13.344-24.99H107.56z"/>
	<path fill="#78BD4A" d="M126.977,14.721c-8.812,8.927-16.723,18.708-23.704,29.152h6.261
		C114.5,33.871,126.916,14.93,126.977,14.721"/>
	<polyline fill="#FFFFFF" points="85.366,77.392 85.366,77.392 96.692,77.392 	"/>
	<path fill="#F08C28" d="M97.967,73.048c2.663-8.579,5.832-16.94,9.592-24.99h-7.017c-5.039,7.963-9.473,16.33-13.344,24.99H97.967z
		"/>
	<path fill="#CF414F" d="M85.366,77.392c-4.667,11.144-8.335,22.789-10.914,34.81c4.844,1.722,9.996,2.788,15.351,3.113
		c1.075-13.011,3.401-25.696,6.889-37.923H85.366z"/>
	<path fill="#CF414F" d="M96.692,77.389H85.363H96.692z"/>
</g>
<path fill="#1E1E1E" d="M201.979,56.427h70.357v5.425h-51.133l-8.459,34.301h45.713c2.551,0,4.623-2.073,4.623-4.629V75.73h5.426
	v15.793c0,5.506-4.469,10.055-10.049,10.055h-52.094l9.334-39.727h-13.719V56.427z M204.929,34.248h64.461v5.425h-64.461V34.248z"/>
<path fill="#1E1E1E" d="M289.351,45.896h-5.426v-13.8h5.426V45.896z M349.897,103.573h-55.924c-5.502,0-10.053-4.548-10.053-10.049
	V50.921h5.43v42.604c0,2.55,2.07,4.623,4.623,4.623h55.924V103.573z M295.812,54.67l6.221-16.353
	c1.594-4.229,4.547-6.461,9.891-6.461h21.781c5.344,0,8.297,2.233,9.893,6.461l6.223,16.353l-5.107,1.917l-6.221-16.356
	c-0.799-1.673-2.314-2.951-4.787-2.951h-21.781c-2.475,0-3.986,1.278-4.707,2.951l-6.303,16.356L295.812,54.67z M309.13,71.981
	c-0.953,7.896-3.029,15.078-7.895,22.658l-4.551-2.953c4.229-6.703,6.068-13.165,6.941-20.422L309.13,71.981z M304.907,50.044
	h35.814v5.425h-14.516v8.776h22.016v5.422h-22.016v15.316c0,5.506-4.549,10.052-10.055,10.052h-4.385v-5.423h4.385
	c2.557,0,4.629-2.076,4.629-4.629V69.667h-23.371v-5.422h23.371v-8.776h-15.873V50.044z M341.599,70.785l7.422,21.459l-5.107,1.754
	l-7.42-21.459L341.599,70.785z"/>
</svg>
